<svg xmlns="http://www.w3.org/2000/svg" viewBox="0 0 76.9 85.16"><defs><style>.cls-1{fill:#f0f0f0;}.cls-2{fill:#fff68b;}.cls-3{fill:#ffd3bd;}.cls-4{fill:#d3a56a;}.cls-5{fill:#eaeaea;stroke:#d3a56a;stroke-miterlimit:10;stroke-width:0.5px;}.cls-6{fill:#8e6642;}.cls-7{fill:#151519;}</style></defs><title>icon</title><g id="Layer_3" data-name="Layer 3"><circle class="cls-1" cx="38.45" cy="38.45" r="38.45"/></g><g id="Layer_2" data-name="Layer 2"><path class="cls-2" d="M82.19,86.79s.88,12.76-2,15.83c0,0,4.16-4.17,6-7.92,0,0-2.36,13.36-6,19.15,0,0,19.2-16.94,22.18-23.91,1.6-3.37,2-14.9-.23-19.32a23.16,23.16,0,0,0,3.23,4.08c1.28,1-4.85-5.79-4.6-15.66,0,0-.77-10.47-6.9-15.32a83.62,83.62,0,0,0-6.78-7.49Z" transform="translate(-33.37 -30.67)"/><path d="M71,36.4s-17.53-3-26.56,15.83c0,0-5.87,12.43-1.87,30.47,0,0-1.87,19.75,7,25.7,0,0-4.25-6-3.74-11.06,0,0,2.89,8.94,6.8,11.06,0,0,2.13,5.2,1.37,7.15s4.59-7.06,4.59-13.44a28.24,28.24,0,0,1-.51,8.17s4.94-6,4.09-19.41Z" transform="translate(-33.37 -30.67)"/><path class="cls-3" d="M47.81,59.86s-1.41,9.71,1.53,15.32c0,0-4.21,16,20.43,22,0,0,8.93-1.79,21.7-13.79V67.78S89.09,42.63,69.47,43C69.47,43,50.49,47,47.81,59.86Z" transform="translate(-33.37 -30.67)"/><polygon class="cls-4" points="53.75 39.37 55.09 39.52 58.1 40.52 58.1 41.41 55.05 40.47 53.67 40.37 53.75 39.37"/><path d="M66.53,41.51s-.13,15.32-7.4,21.7c0,0,2.61-5.46,0-10.85,0,0,.38,10.73-7.66,13.92l-3.91,4.34S40.91,34.78,66.53,41.51Z" transform="translate(-33.37 -30.67)"/><ellipse class="cls-5" cx="78.32" cy="70.04" rx="8.6" ry="9.62" transform="translate(-37.1 -26.25) rotate(-3.15)"/><ellipse class="cls-5" cx="55.64" cy="72" rx="8.34" ry="9.6" transform="translate(-37.25 -27.5) rotate(-3.15)"/><path class="cls-3" d="M66.56,80.35c-4.26,1.19-4.26-2.22-4.26-2.22-.06-2.69,1.83-2.78,3.28-2.46" transform="translate(-33.37 -30.67)"/><path class="cls-6" d="M73.34,80.14s1.72,1.42,1.11,4.62C74.19,83,74,81.4,72.86,80.62Z" transform="translate(-33.37 -30.67)"/><path class="cls-6" d="M63.09,82.87s-.68,0-1,2.53a1.53,1.53,0,0,0,1.49,1.73,9,9,0,0,0,3.91-.24,11.51,11.51,0,0,0,6.55-5.19l-.36-.52c-3.45,5.18-7.09,4.71-10.24,4.55a.62.62,0,0,1-.61-.54A4.93,4.93,0,0,1,63.09,82.87Z" transform="translate(-33.37 -30.67)"/><ellipse class="cls-7" cx="24.14" cy="40.37" rx="1.87" ry="2.47"/><ellipse class="cls-7" cx="44.98" cy="38.95" rx="1.87" ry="2.47"/><path class="cls-4" d="M64.06,71.33c0-.46,2-2.69,5.57-.29l0,.59s-3.29-2.46-5.61.27Z" transform="translate(-33.37 -30.67)"/><path class="cls-2" d="M68.57,38.11s-11.76,10.29,8.08,26c0,0-4-11.79-3.69-17.06A32.49,32.49,0,0,0,79.81,61.6s-3.33-7.71-3.16-11.24c0,0,6.67,12,12.54,15.6a67,67,0,0,0,5.6,4.66c2.21,1.53-5-29.95-5-29.95S84.57,25.43,68.57,38.11Z" transform="translate(-33.37 -30.67)"/><path class="cls-6" d="M65.3,75.55a10.57,10.57,0,0,1,1.58.48,3,3,0,0,0-4.68,1A3.18,3.18,0,0,0,62,78.6c.11,1.13.95,2.94,3.83,2.27a1.76,1.76,0,0,0,1.21-1.18L66.5,80a2.78,2.78,0,0,1-3.92-1.27,2.83,2.83,0,0,1,.12-2.11A2.21,2.21,0,0,1,65.3,75.55Z" transform="translate(-33.37 -30.67)"/></g></svg>