<svg xmlns="http://www.w3.org/2000/svg" viewBox="0 0 138.09 137.86"><defs><style>.cls-1{fill:#41b3a3;}</style></defs><title>Asset 1</title><g id="Layer_2" data-name="Layer 2"><g id="Layer_2-2" data-name="Layer 2"><path class="cls-1" d="M8.85,136.85C28.9,124.06,42,100.91,53.17,80.6,65.9,57.39,76.57,33.14,87.49,9.05l-11-4.63c-4.26,13-6.64,26.72-9.46,40C63.31,62.24,59.7,80.07,56.63,98c-1.05,6.06-2.3,12.26-2.59,18.43-.19,4.25,5.37,7.88,9,5.18,5.42-4,9.28-10.07,13.08-15.52,6.06-8.68,11.72-17.64,17.3-26.63,11.78-19,23.11-38.19,34.28-57.51q3.72-6.43,7.4-12.88l-11-4.63C114.93,26.78,108.34,50.49,103,74.06a270.47,270.47,0,0,0-5.89,34.86c-.63,7.09-1.47,16.13,2.27,22.58,7,12,26.19,4.15,35.56-.13,7-3.21.93-13.55-6-10.37-4.78,2.18-10.22,4.17-15.48,4.6a26.81,26.81,0,0,1-3.83-.28c.36,0,.08.82.06-.07,0,.44,0,.3-.23-.72-1.37-5.58-.61-13.74.23-20.49,2.73-22,8.62-43.8,15.07-64.95,3.24-10.63,6.74-21.21,11-31.48,2.63-6.36-7.68-10.4-11-4.62C107.08,34.11,89.16,65.32,69.2,95c-2.6,3.86-5.22,7.71-8.06,11.39.06-.08-.44.58-1,1.24s-1,1.25-1.58,1.85-3.26,3-1.55,1.71l9,5.19c.29-6.2,1.67-12.57,2.94-19.71,2-11.35,4.24-22.66,6.53-34,3.72-18.3,6.75-37.35,12.59-55.13C90.18,1.26,80-3.26,77.13,3c-10.52,23.2-20.8,46.54-32.92,69A289.24,289.24,0,0,1,24,104.77c-5.9,8.12-12.7,16.27-21.24,21.71-6.49,4.14-.48,14.53,6.06,10.37Z"/></g></g></svg>