<svg xmlns="http://www.w3.org/2000/svg" xmlns:xlink="http://www.w3.org/1999/xlink" viewBox="0 0 371.74 373.34"><defs><style>.cls-1,.cls-10,.cls-11,.cls-16,.cls-17,.cls-18,.cls-19{fill:none;}.cls-2{fill:#9bcec4;}.cls-3{clip-path:url(#clip-path);}.cls-4{fill:#414244;}.cls-5{fill:#303030;}.cls-6,.cls-8{fill:#fff19f;}.cls-6{stroke:#d3bd8c;}.cls-10,.cls-11,.cls-16,.cls-17,.cls-18,.cls-19,.cls-6{stroke-miterlimit:10;}.cls-7{fill:#f2cac0;}.cls-9{fill:#333;}.cls-10,.cls-11{stroke:#e59b7f;}.cls-11,.cls-16{stroke-width:2px;}.cls-12{fill:#e59b7f;}.cls-13{fill:#c48778;}.cls-14{fill:#e2decc;}.cls-15{fill:#c9c0ad;}.cls-16,.cls-17,.cls-18,.cls-19{stroke:#f4f3e1;stroke-linecap:round;}.cls-18{stroke-width:4px;}.cls-19{stroke-width:6px;}.cls-20{fill:#efc1b1;}</style><clipPath id="clip-path" transform="translate(-57.55 -79.11)"><circle class="cls-1" cx="243.42" cy="264.98" r="185.87"/></clipPath></defs><title>Me</title><g id="Layer_6" data-name="Layer 6"><circle class="cls-2" cx="185.87" cy="185.87" r="185.87"/></g><g id="Layer_6_copy" data-name="Layer 6 copy"><g class="cls-3"><path class="cls-4" d="M153.69,276.72s88.8-37.58,166.31,0c0,0,9.76,5,16,5.16,0,0,6.8-.54,13.61,17.12,0,0,16.56-1.57,17.75,20.91,0,0,11.54,13.47,17.16,24.34,0,0,10.35,10,23.67,39.57,0,0,27.51,24,10.65,43.78s-5.92,14.8-5.92,14.8l-29.59.57s-21.3-3.24-24.26-25.43l-4.14-21.3-10.06-6.51s-16-8.58-16-16.56l-1.19,79.29-161.54-4.74-7.69-55.62s4.44,26.92-19.53,36.1c0,0-18.34,8.58-33.13,8.28l-17.75-29s-4.14-10.36,8.87-30.18C96.92,377.31,147.74,282.34,153.69,276.72Z" transform="translate(-57.55 -79.11)"/><path class="cls-5" d="M158.46,392.1s-.47-26.89-11.8-50.43c0,0,6.6,43.53,9.76,69.18C156.42,410.85,159.67,400.87,158.46,392.1Z" transform="translate(-57.55 -79.11)"/><path class="cls-5" d="M144,367.33s5.63,0,0,29.24l-2,18.82a24.73,24.73,0,0,1-9.76,14.23s19.53-3.68,19.92-20.41c0,0-1.37-41.64-8.15-41.88" transform="translate(-57.55 -79.11)"/><path class="cls-5" d="M163.09,391.85s3.48-46.15,1.27-62.47c0,0,9.28,21.88,5.72,74.73C170.08,404.11,167.71,391.6,163.09,391.85Z" transform="translate(-57.55 -79.11)"/><path class="cls-5" d="M328.88,373.17l2.8-43.14,48.7,46.23V443c-6.33-3.57-13.17-4.91-19.63-18.47-2.88-9.23-3.31-17.13-5.84-28.26C354.91,396.24,328.21,383.36,328.88,373.17Z" transform="translate(-57.55 -79.11)"/><path class="cls-5" d="M347.94,349.72,360.19,308s7.84,4.3-2.81,28.24c0,0-.25,20.14-4.85,16.84Z" transform="translate(-57.55 -79.11)"/><path class="cls-5" d="M320.74,308s-9.58-29.4-2.93-31.25c0,0,11.83,2.43,13.87,34.24v12.79Z" transform="translate(-57.55 -79.11)"/><path class="cls-5" d="M387.06,375.5s20.6-16.93,6.56,5Z" transform="translate(-57.55 -79.11)"/><path class="cls-5" d="M370.27,357.91c22.52-33.2-6.31-4.39-6.31-4.39Z" transform="translate(-57.55 -79.11)"/><path class="cls-5" d="M322.15,402.06S301,429.87,247.09,443c0,0,25.27-4.78,27.57-1.08C274.66,441.89,314.23,427.21,322.15,402.06Z" transform="translate(-57.55 -79.11)"/><path class="cls-5" d="M324.38,413.55S310,445.07,282.81,451.14l35,1S323.8,431.55,324.38,413.55Z" transform="translate(-57.55 -79.11)"/><path class="cls-5" d="M189,448.39s-25.63-23.58-27.9-37.54V446Z" transform="translate(-57.55 -79.11)"/><path class="cls-6" d="M252.38,101.28s49.17-10.11,56.49,52.36c0,0,6,32.26,12.26,40,0,0,7.32,17.57,0,41.74,0,0-7.32,12.77,1.36,25.19,0,0-7.83-3.53-11.92-10.53,0,0-2.21,19.47,4.09,30.32,0,0-9.38,4.55-13.63-6.85,0,0-1.69,11.78-8.5,16.61l-1-5.38s-5.28,7.83-9.53,9.87l-7.49-14.25-37.16,4.34Z" transform="translate(-57.55 -79.11)"/><path class="cls-5" d="M251.81,107.13c.2-2.44.3-3.9.57-5.85,0,0-33.27-19.74-73.87,26.74a140,140,0,0,0-12.09,30.89s-4.46,27.54-11.15,38.2c0,0-4.46,7,1.59,28.66V242s8.28,21.33,22.61,32.47c0,0,6.53,5.73,7.32,10.51l1.28-4.67s4.45,6.58,4.45,9.76c0,0,6.88-9.76,4.46-20.69l40.35,15.27Z" transform="translate(-57.55 -79.11)"/><path class="cls-7" d="M173.65,173.69c0-.31,0-.63,0-.94a63.7,63.7,0,0,1,127.4-.09c0,.37,0,.75,0,1.12-2.48,32.08-5.08,60.39-8.3,71.18-.18,3.86-4,10.78-9.85,15.76s-20.52,13.13-20.52,13.13a39.61,39.61,0,0,1-41.25,2.39L190.68,260c-4.12-2.2-11.69-13.73-11.94-18.4Z" transform="translate(-57.55 -79.11)"/><path class="cls-5" d="M251.48,110.5c-1.15,14-1.17,33.81-1.17,33.81-7.82,22.12-4.61,58.21-4.61,58.21-5.53-26.21,1-55.32,1-55.32C241.78,152.31,234,171,234,171c-4.25,21.79-15.83,27.91-15.83,27.91l1.37-5.95c-1.28,4.51-8.51,7.83-8.51,7.83,3.74-1.71,8.68-33,8.68-33-16.68,31.83-32.57,40-32.57,40,.85-1.54,0-10.4,0-10.4-1.46,16.06-3.55,17.26-4.33,17.53L179,197.2c-1.13,9.07.17,36.52,2.28,39.09,0,0,8.77,14.24,23.1,11.62,0,0-10.68,9.27-19.65,6.1.69,3,7.9,12.57,6.18,11.63-9.19-5-16.81-19.32-17.24-30-.38,0-6.29-73.78,3.16-91.83,0,0,29-46.63,74.69-33.27" transform="translate(-57.55 -79.11)"/><path class="cls-8" d="M250.5,141.72s.36,47.6,21.52,51.88c0,0-5-21.14-4.73-35.33,0,0,.28,33.28,33.74,51.08,0,0,3-47.14-1.72-51.5,0,0-3.86-40.92-47.83-47.35C251.48,110.5,249.53,128.46,250.5,141.72Z" transform="translate(-57.55 -79.11)"/><path class="cls-9" d="M223.43,212.15a4.44,4.44,0,0,0,0,4.47s-19.77,4.68-29.71-3.24v-1.87S204,214.75,223.43,212.15Z" transform="translate(-57.55 -79.11)"/><path class="cls-9" d="M258.83,211.87s-.2,4.89-1,6.11c0,0,16.58,2,28.7-4.15l.86-2.32S266.24,214,258.83,211.87Z" transform="translate(-57.55 -79.11)"/><path class="cls-10" d="M229.87,214.06s2.24-15.17-20.23-16.44c0,0-29.45-3.13-30.64,12.7,0,0-4.43,29,23.15,33.53C202.15,243.85,230.47,247.68,229.87,214.06Z" transform="translate(-57.55 -79.11)"/><path class="cls-10" d="M251.48,215.08c0-9.4,7.81-13.36,13.73-15,0,0,30.39-6.15,34,9.24,0,0,6.51,24.08-13.66,31.61C285.51,241,250.91,252.53,251.48,215.08Z" transform="translate(-57.55 -79.11)"/><path class="cls-11" d="M229.54,221s13.93-5.82,22.22.48" transform="translate(-57.55 -79.11)"/><path class="cls-9" d="M227.69,188.68s-10.79-9.22-30.95-2.42c0,0,21.49-2.34,28.7,3.88C225.44,190.14,228.11,191.4,227.69,188.68Z" transform="translate(-57.55 -79.11)"/><path class="cls-9" d="M262.23,191.43s17.79-4.26,30.47-3c0,0-18.64-5-30.47,1C262.23,189.4,260.19,191,262.23,191.43Z" transform="translate(-57.55 -79.11)"/><rect class="cls-12" x="116.08" y="134.27" width="4.78" height="3.83"/><polygon class="cls-12" points="242.48 135.07 240 134.27 239.59 138.1 242.48 138.88 242.48 135.07"/><path class="cls-13" d="M227.17,241.6c7.77,5.14,19.09,2.63,23.74,0C244.47,248,237.57,250.79,227.17,241.6Z" transform="translate(-57.55 -79.11)"/><path class="cls-14" d="M199.15,268c8.45-5,40.58-20.76,77.72-.91a6.12,6.12,0,0,1,3.15,6.55l-15,79-3.73,5.94s-33.89,3.87-44.15,0l-4.94-5-14.82-81.81A3.61,3.61,0,0,1,199.15,268Z" transform="translate(-57.55 -79.11)"/><path class="cls-15" d="M212.24,353.62c17.41-1.38,52.82-.92,52.82-.92l-3.73,5.94s-30.68,4.06-44.15,0Z" transform="translate(-57.55 -79.11)"/><path class="cls-16" d="M263.85,352.57s-34.86-.32-50.28.95" transform="translate(-57.55 -79.11)"/><path class="cls-17" d="M198,270.15c-1.16-.66,38.62-26.62,79.81-1.91a5.75,5.75,0,0,1,1.92,3.71" transform="translate(-57.55 -79.11)"/><path class="cls-14" d="M303.77,304.28s-1.66,4.59-9.71,11.49c0,0-25.36,20.1-27.4,28.48l3.79-20s-.36,4.53,5.37-2.88c0,0,40.71-28.85,13.08-33.19,0,0-7.58-.88-13.08,7.66l2.41-12.72S317.55,274.15,303.77,304.28Z" transform="translate(-57.55 -79.11)"/><path class="cls-17" d="M277.84,285.17s30.86-9.06,26.61,13.83" transform="translate(-57.55 -79.11)"/><path class="cls-17" d="M269.72,334.4s5.45-8.21,23.15-21.34" transform="translate(-57.55 -79.11)"/><line class="cls-18" x1="156.03" y1="236.91" x2="160.45" y2="263.63"/><line class="cls-19" x1="155.16" y1="226.35" x2="150.9" y2="200.65"/><path class="cls-7" d="M154,250.22c6,.52,20.7,1.89,30.7,3.79L203,270.4s-4.31,9-27-3.06l22.71,12.09s14.05,9-2,8l-10-2.44s26.93,16.39,2.93,12.65l-11-1.36s16.25,9.7,0,9.19c0,0-13.7,7.19-16.59,7.59a27.69,27.69,0,0,1-16.34,14.2l-2.72,58.89s-35.48,15-46.17-8.84c0,0,35.27-60.61,34.93-80.69l.31-23.52a5.67,5.67,0,0,1,2.09-4.34c4-3.29,12.77-10.84,16-16.6A3.89,3.89,0,0,1,154,250.22Z" transform="translate(-57.55 -79.11)"/><path class="cls-7" d="M324.38,286.4l-35.48,1.79s-6.53,6.21,0,12.85c0,0-9.64-1.51-7.6,6.47,0,0-.51,8.77,6.13,8.51a10.12,10.12,0,0,0,0,11.92l3.92,1.44s-1.88,5.36,3.22,11.15c0,0,2.73,2.21,18.39,2.21a38,38,0,0,1,20.76,0l6.81,1.51L364,404.36s46,22,30.13-29.1L364,335.77a10.57,10.57,0,0,1-1.62-3.08c-1-3.05-3-9.41-3-12.29,0,0,1.14-4.12-11-12.8C348.45,307.6,330.63,286.4,324.38,286.4Z" transform="translate(-57.55 -79.11)"/><path class="cls-4" d="M108.12,356.53s-1,20.94,2.28,30c0,0,16.68,6,33.36-15l1.37,30.64s-.68,19.57-14,23.49c0,0-9.72,12.32-25.37,10.84,0,0-27.88-29.23-18.38-44.2Z" transform="translate(-57.55 -79.11)"/><path class="cls-4" d="M373.84,396.91S361.23,392,357,386.32c0,0-3.16,5.28,1.94,13.11l7.15,16.34s2.33,24.1,17.25,27.2h23.95s8.12-5.53,15-20.71c0,0,12-23.09-11-38.83l-6.81-2.05-13.81-15s-2.08-3.15-4.26-1.23l4.26,5.59S389.5,402.52,373.84,396.91Z" transform="translate(-57.55 -79.11)"/><path class="cls-13" d="M200.25,272.72l-24.31-6.4L149,265.7l27,1.64S192.32,276.7,200.25,272.72Z" transform="translate(-57.55 -79.11)"/><path class="cls-13" d="M196.74,287.43c-5.39-.57-11.32-3.59-18.34-6.51L149,278.4l-2.38-1.7,2.38,3.58,29.19,1.78,8.56,2.93A60.1,60.1,0,0,0,196.74,287.43Z" transform="translate(-57.55 -79.11)"/><path class="cls-13" d="M193.72,298.12c-8.69-1.29-20.09-5.5-20.09-5.5L153,290.08l25.78,6.2Z" transform="translate(-57.55 -79.11)"/><path class="cls-13" d="M182.28,305.38a132.4,132.4,0,0,1-14-2c-2.92-.59-8.21.23-10.43-.51a10.1,10.1,0,0,1,4.26,10.23" transform="translate(-57.55 -79.11)"/><path class="cls-13" d="M108.12,356.53s5.18,28.46,8.24,30.74a10.37,10.37,0,0,1-6-.78S104.81,378.32,108.12,356.53Z" transform="translate(-57.55 -79.11)"/><path class="cls-13" d="M145.81,327.26s-8.6,1.44-12.43,0a34.74,34.74,0,0,0,12.43,2.12Z" transform="translate(-57.55 -79.11)"/><path class="cls-20" d="M301.92,272H286.85a2.9,2.9,0,0,0-2.85,2.43c-.57,3.38-.37,9.13,7.51,9.32,0,0,7.89-1,13.58,3.73l12.72-.69-11-12.59A6.5,6.5,0,0,0,301.92,272Z" transform="translate(-57.55 -79.11)"/><path class="cls-13" d="M288.9,301h31.84s-1.53,2.28-5.48,2.22S288.9,301,288.9,301Z" transform="translate(-57.55 -79.11)"/><path class="cls-13" d="M287.43,316h24.51l3.57-.89s-.25,2.1-3.32,2.55l-25.27-.89Z" transform="translate(-57.55 -79.11)"/><path class="cls-13" d="M287.43,327.94l3.92,1.44s13.74,1.11,21.86.43c0,0,5.49-.09.51-1.28l-3.06.45S293.31,329.38,287.43,327.94Z" transform="translate(-57.55 -79.11)"/><path class="cls-13" d="M305.09,287.43s-6.6-4.9-13.58-3.73c0,0-4.6-.53-6.51-2.78,0,0,16,1.91,21.7,4.8,0,0,3.32.13,3.58-1.55a21.7,21.7,0,0,0,7.53,2.57Z" transform="translate(-57.55 -79.11)"/><path class="cls-13" d="M333.72,342.74s10.19.08,15.38-1.07c0,0-2.62,2-8.57,2.58Z" transform="translate(-57.55 -79.11)"/><path class="cls-13" d="M390.72,370.76s-7.68,23.89-20.67,24.5C370.05,395.26,388.14,409,390.72,370.76Z" transform="translate(-57.55 -79.11)"/><path class="cls-5" d="M143.89,374.49s-15.53,21.19-34.17,14.3c0,0-7.78-4.6-4.59-25l-8.21,13.54s-.93,35.21,36.46,15.31l9.71-6.47S146.92,376.28,143.89,374.49Z" transform="translate(-57.55 -79.11)"/></g></g></svg>