<svg id="Layer_2" data-name="Layer 2" xmlns="http://www.w3.org/2000/svg" viewBox="0 0 161.39 131.95"><defs><style>.cls-1{stroke:#fff;stroke-linecap:round;stroke-miterlimit:10;stroke-width:5px;}.cls-2{fill:#fff;}</style></defs><title>sign</title><line class="cls-1" x1="2.5" y1="65.83" x2="32.19" y2="65.83"/><path class="cls-2" d="M87.23,225.57c19.58-12.48,32.38-35.36,43.24-55.17,12.74-23.21,23.41-47.46,34.33-71.55l-5.48-2.31c-4.26,13-6.64,26.72-9.46,40-3.76,17.78-7.37,35.61-10.44,53.52-1,5.81-2.21,11.74-2.48,17.63-.1,2.13,2.69,3.94,4.52,2.59,4.95-3.65,8.53-9.46,12-14.43,6.06-8.69,11.71-17.65,17.3-26.64,11.78-19,23.11-38.19,34.28-57.51q3.72-6.44,7.39-12.88L207,96.54c-9.23,22.36-15.82,46.06-21.12,69.63a263.9,263.9,0,0,0-5.78,34.06c-.58,6.47-1.59,15.15,1.86,21.07,5.86,10.09,23.81,2.28,31.46-1.21,3.5-1.6.46-6.77-3-5.18-5,2.28-21.32,9.76-23.88,1.73-2.08-6.5-.7-14.69.11-21.28,2.75-22.27,8.66-44.33,15.19-65.75,3.23-10.63,6.74-21.21,11-31.48,1.31-3.18-3.84-5.2-5.49-2.31-17.68,31.12-35.6,62.33-55.57,92-3.66,5.46-8.46,13.74-13.25,17.27l4.51,2.59c.32-6.86,1.84-13.75,3-20.5,2-11.35,4.24-22.66,6.54-34,3.72-18.3,6.75-37.35,12.58-55.13,1.05-3.17-4.06-5.43-5.48-2.31-10.52,23.21-20.8,46.54-32.92,69a289.24,289.24,0,0,1-20.18,32.81c-6.22,8.55-13.32,17.06-22.32,22.79-3.24,2.07-.24,7.27,3,5.18Z" transform="translate(-53.53 -94.33)"/></svg>